# xmcd
#
# Track frame offsets:
# 150
# 11495
# 25045
# 38190
# 49507
# 61602
# 75077
# 89347
# 103097
# 115990
# 127222
# 140015
# 153860
# 167830
# 180405
# 194387
# 207152
# 222545
# 236842
# 250537
# 265352
# 279755
# 293965
# 308440
# 321397
#
# Disc length: 4460 seconds
#
#
# Revision: 4
# Processed by: cddbd v1.5.2PL0 Copyright (c) Steve Scherf et al.
# Submitted via: FreeRIP 2.945 
#
DISCID=58116a19
DTITLE=Various Artist - Juke Joint Blues
DYEAR=1900
DGENRE=
TTITLE0=Blind Willie McTell - Statesboro' Blues
TTITLE1=Sonny Boy Williamson - Good Morning, Schoolgirl
TTITLE2=Billie Holiday - Summertime
TTITLE3=Tampa Red - It Hurts Me Too
TTITLE4=Robert Johnson - Cross Road Blues
TTITLE5=Bessie Smith - Nobody Knows You When You're Down And Out
TTITLE6=Casey Bill Weldon - You Just As Well Let Her Go
TTITLE7=Big Bill Broonzy - Key To The Highway
TTITLE8=Robert Petway - Catfish Blues
TTITLE9=Robert Johnson - Stones In My Passway
TTITLE10=Memphis Minnie - What's The Matter With The Mill
TTITLE11=Muddy Waters - I Be's Troubled
TTITLE12=Leadbelly - Midnight Special
TTITLE13=Big Bill Broonzy - I Feel So Good
TTITLE14=Leroy Carr - Midnight Hour Blues
TTITLE15=Sonny Boy Williamson - I Been Dealing With The Devil
TTITLE16=Big Joe Williams - Baby Please Don't Go
TTITLE17=Blind Willie Johnson - Nobody's Fault But Mine
TTITLE18=Hambone Willie Newbern - Roll And Tumble Blues
TTITLE19=Billie Holliday - Strange Fruit
TTITLE20=Lonnie Johnson - Winnie The Wailer
TTITLE21=William Harris - Bull Frog Blues
TTITLE22=Oscar Woods - Lone Wolf Blues
TTITLE23=Robert Johnson - Ramblin' On My Mind
TTITLE24=Tampa Red - Don't You Lie To Me
EXTD=
EXTT0=Blind Willie McTell\n1928
EXTT1=Sonny Boy Williamson\n1937
EXTT2=Billie Holiday\n1936
EXTT3=Tampa Red\n1940
EXTT4=Robert Johnson\n1936
EXTT5=Bessie Smith\n1929
EXTT6=Casey Bill Weldon\n1936
EXTT7=Big Bill Broonzy\n1941
EXTT8=Robert Petway\n1941
EXTT9=Robert Johnson\n1937
EXTT10=Memphis Minnie\n1930
EXTT11=Muddy Waters\n1941
EXTT12=Leadbelly\n1940
EXTT13=Big Bill Broonzy\n1941
EXTT14=Leroy Carr\n1932
EXTT15=Sonny Boy Williamson\n1940
EXTT16=Big Joe Williams\n1935
EXTT17=Blind Willie Johnson\n1927
EXTT18=Hambone Willie Newbern\n1929
EXTT19=Billie Holiday\n1939
EXTT20=Lonnie Johnson\n1932
EXTT21=William Harris\n1928
EXTT22=Oscar Woods\n1936
EXTT23=Robert Johnson\n1936
EXTT24=Tampa Red\n1940
PLAYORDER=
